<svg width="975" height="320" viewBox="0 0 975 320" fill="none" xmlns="http://www.w3.org/2000/svg">
<path d="M145.032 224.048V144.56C145.032 115.76 132.36 99.632 107.592 99.632C88.008 99.632 69.576 112.88 55.176 127.28V28.784H54.024L0.167969 39.152V40.88C9.95997 44.336 14.856 49.52 14.856 67.952V224.048C14.856 242.48 13.992 252.272 2.18397 252.272V254H67.848V252.272C56.04 252.272 55.176 242.48 55.176 224.048V130.16C64.104 124.688 74.472 121.52 82.536 121.52C101.256 121.52 104.712 135.056 104.712 154.928V224.048C104.712 242.48 103.848 252.272 92.04 252.272V254H157.704V252.272C145.896 252.272 145.032 242.48 145.032 224.048Z" fill="black"/>
<path d="M294.868 215.984C285.652 228.944 270.964 237.008 253.972 237.008C222.868 237.008 209.908 207.632 209.908 162.992V160.112H296.308C298.036 123.248 276.724 99.632 241.588 99.632C198.964 99.632 169.012 135.344 169.012 181.136C169.012 222.32 191.476 257.456 234.676 257.456C266.932 257.456 284.788 237.584 296.596 217.136L294.868 215.984ZM240.436 103.664C258.58 103.664 262.9 123.824 260.596 155.504H210.196C211.348 129.008 220.276 103.664 240.436 103.664Z" fill="black"/>
<path d="M401.242 99.632C385.69 99.632 373.018 112.592 360.346 130.736V100.208H359.194L305.338 112.88V114.608C315.13 118.064 320.026 123.248 320.026 141.68V224.048C320.026 242.48 319.162 252.272 307.354 252.272V254H373.018V252.272C361.21 252.272 360.346 242.48 360.346 224.048V133.616C366.394 127.856 372.154 126.128 377.338 126.128C385.69 126.128 395.482 130.448 402.97 138.8H404.698L413.05 101.936C409.018 100.208 404.986 99.632 401.242 99.632Z" fill="black"/>
<path d="M538.784 28.208C494.432 28.208 461.024 52.4 450.368 103.088L433.664 112.016L432.512 115.76H447.776L416.096 264.08C409.76 294.032 398.528 312.752 378.08 317.936V319.664C410.048 316.784 448.064 300.944 458.432 252.272L487.52 115.76H517.472L525.248 103.088H490.112L496.448 74C501.632 49.808 507.392 36.272 518.048 36.272C526.688 36.272 535.04 46.64 544.832 62.192H546.56L557.216 29.648C550.88 28.784 544.832 28.208 538.784 28.208Z" fill="black"/>
<path d="M609.929 99.632C594.377 99.632 581.705 112.592 569.033 130.736V100.208H567.881L514.025 112.88V114.608C523.817 118.064 528.713 123.248 528.713 141.68V224.048C528.713 242.48 527.849 252.272 516.041 252.272V254H581.705V252.272C569.897 252.272 569.033 242.48 569.033 224.048V133.616C575.081 127.856 580.841 126.128 586.025 126.128C594.377 126.128 604.169 130.448 611.657 138.8H613.385L621.737 101.936C617.705 100.208 613.673 99.632 609.929 99.632Z" fill="black"/>
<path d="M771.664 215.984V100.208H770.512L716.08 104.24V105.968C725.872 109.424 731.344 116.336 731.344 134.768V226.928C722.704 232.4 712.048 235.568 703.984 235.568C685.552 235.568 681.808 222.032 681.808 202.16V100.208H680.656L626.224 104.24V105.968C636.016 109.424 641.488 116.336 641.488 134.768V212.528C641.488 241.328 654.16 257.456 679.216 257.456C698.8 257.456 717.232 244.208 731.632 229.808L737.392 257.456H738.544L786.352 247.664V245.936C776.56 242.48 771.664 234.416 771.664 215.984Z" fill="black"/>
<path d="M795.885 254H861.549V252.272C849.741 252.272 848.877 242.48 848.877 224.048V100.208H847.725L793.869 112.88V114.608C803.661 118.064 808.557 123.248 808.557 141.68V224.048C808.557 242.48 807.693 252.272 795.885 252.272V254Z" fill="black"/>
<path d="M972.602 227.216C965.114 233.264 955.322 238.736 946.682 238.736C933.722 238.736 926.522 231.248 926.522 216.272V116.048H967.13L972.026 103.088H926.522V60.176H924.794C910.682 88.4 895.706 100.496 875.258 110L871.226 112.016V116.048H886.202V216.848C886.202 245.648 900.026 257.456 923.354 257.456C941.21 257.456 960.506 245.936 974.33 228.368L972.602 227.216Z" fill="black"/>
<path d="M836.389 54.3892L872 45L836.389 35.6108L827 0L817.611 35.6108L782 45L817.611 54.3892L827 90L836.389 54.3892Z" fill="black"/>
</svg>
