<svg width="1490" height="500" viewBox="0 0 1490 500" fill="none" xmlns="http://www.w3.org/2000/svg">
<path d="M303.42 214.1C303.42 207.207 295.353 202.44 279.22 199.8C269.833 198.333 259.053 197.6 246.88 197.6C234.853 197.6 221.58 198.333 207.06 199.8C170.98 203.467 144.58 208.747 127.86 215.64C114.513 220.92 110.993 226.713 117.3 233.02C118.033 233.753 117.887 234.12 116.86 234.12C115.833 234.12 114.953 233.753 114.22 233.02C111.727 230.527 110.48 227.667 110.48 224.44C110.48 221.067 111.213 217.913 112.68 214.98C114 211.9 116.493 208.747 120.16 205.52C123.827 202.293 128.227 199.653 133.36 197.6C149.053 191.44 167.313 187.04 188.14 184.4C200.313 182.933 211.02 182.2 220.26 182.2C246.807 182.2 268.807 185.573 286.26 192.32C297.7 196.867 304.887 201.707 307.82 206.84C309.433 209.48 310.24 212.12 310.24 214.76C310.24 217.4 309.433 220.113 307.82 222.9C305.913 225.54 303.86 227.08 301.66 227.52C299.46 227.96 298.433 227.593 298.58 226.42C298.873 225.1 299.753 223.267 301.22 220.92C302.687 218.573 303.42 216.3 303.42 214.1ZM174.06 314.42C173.033 321.02 172.52 325.567 172.52 328.06C172.52 336.273 175.087 341.04 180.22 342.36C180.953 342.653 181.76 342.8 182.64 342.8L188.58 340.38C189.753 339.353 190.34 339.207 190.34 339.94C190.34 340.673 189.9 341.333 189.02 341.92C186.673 343.973 183.593 345 179.78 345C179.047 345 178.313 345 177.58 345C164.527 343.973 158 336.493 158 322.56C158 314.933 159.687 306.28 163.06 296.6C166.433 286.92 171.42 277.093 178.02 267.12C184.62 257 198.993 236.393 221.14 205.3C222.9 202.953 224.22 201.78 225.1 201.78C226.127 201.78 226.86 202 227.3 202.44C227.74 202.88 227.96 203.32 227.96 203.76C227.96 204.2 227.887 204.567 227.74 204.86C196.5 251.353 178.607 287.873 174.06 314.42Z" fill="black"/>
<path d="M269.896 271.96C269.896 270.053 268.502 269.1 265.716 269.1C260.729 269.1 254.642 272.62 247.456 279.66C245.696 281.42 242.469 285.087 237.776 290.66C233.229 296.233 228.756 302.613 224.356 309.8L218.856 321.9L219.516 319.7C219.222 320.287 218.929 321.167 218.636 322.34C217.902 324.1 215.776 325.567 212.256 326.74C211.522 327.033 210.862 327.18 210.276 327.18C208.809 327.18 208.662 326.08 209.836 323.88C210.422 322.413 212.476 317.207 215.996 308.26C219.516 299.167 222.376 291.907 224.576 286.48C218.856 292.787 213.502 297.92 208.516 301.88C207.049 303.053 206.022 303.2 205.436 302.32C205.289 302.173 205.216 301.88 205.216 301.44C205.216 301 205.876 300.193 207.196 299.02C216.142 291.247 223.182 284.06 228.316 277.46C232.129 268.513 239.096 256.12 249.216 240.28C259.482 224.293 269.969 211.093 280.676 200.68C287.862 193.493 295.636 188.653 303.996 186.16C307.809 184.987 311.329 184.4 314.556 184.4C317.929 184.4 321.009 185.353 323.796 187.26C326.729 189.02 328.196 192.393 328.196 197.38C328.196 203.98 325.996 210.653 321.596 217.4C317.196 224.147 309.422 231.7 298.276 240.06C287.129 248.273 276.789 254.433 267.256 258.54C265.496 259.273 264.469 259.2 264.176 258.32C263.882 257.293 264.616 256.413 266.376 255.68C274.882 251.867 284.416 245.853 294.976 237.64C305.682 229.427 312.796 222.46 316.316 216.74C319.982 210.873 321.816 206.18 321.816 202.66C321.816 198.993 320.276 197.16 317.196 197.16C313.676 197.16 308.102 200.093 300.476 205.96C289.182 215.053 277.302 227.74 264.836 244.02C252.516 260.3 241.882 276.727 232.936 293.3C237.042 287.433 240.782 282.593 244.156 278.78C252.369 269.54 260.362 264.92 268.136 264.92C275.469 264.92 279.796 268.147 281.116 274.6C281.262 275.48 281.336 276.727 281.336 278.34C281.336 279.953 280.749 282.373 279.576 285.6C278.549 288.68 275.469 294.473 270.336 302.98C265.349 311.34 262.856 316.4 262.856 318.16C262.856 319.92 263.442 320.8 264.616 320.8C266.229 320.8 268.649 319.773 271.876 317.72C280.089 312.587 290.796 303.933 303.996 291.76C305.756 290 306.562 289.707 306.416 290.88C306.416 292.053 305.976 293.153 305.096 294.18C294.242 305.327 283.022 314.64 271.436 322.12C266.009 325.64 261.096 327.4 256.696 327.4C255.522 327.4 254.422 327.253 253.396 326.96C247.676 325.787 244.816 322.633 244.816 317.5C244.816 312.22 246.869 306.353 250.976 299.9C251.709 298.873 254.422 295.427 259.116 289.56C266.302 280.76 269.896 274.893 269.896 271.96Z" fill="black"/>
<path d="M348.957 291.32C356.73 287.067 360.617 282.74 360.617 278.34C360.617 273.94 357.977 271.74 352.697 271.74C350.203 271.74 347.563 272.4 344.777 273.72C338.617 276.507 332.677 281.347 326.957 288.24C319.917 296.747 316.397 304.667 316.397 312C316.397 314.787 317.13 317.427 318.597 319.92C320.21 322.267 322.997 323.44 326.957 323.44C333.85 323.44 342.577 319.847 353.137 312.66C363.697 305.327 372.79 297.993 380.417 290.66C382.177 288.9 383.057 288.827 383.057 290.44C383.057 291.467 382.617 292.347 381.737 293.08C376.31 298.067 372.643 301.44 370.737 303.2C368.977 304.813 365.383 307.82 359.957 312.22C354.53 316.473 350.13 319.48 346.757 321.24C336.343 326.667 327.47 329.38 320.137 329.38C312.95 329.38 307.23 327.767 302.977 324.54C298.87 321.167 296.817 316.547 296.817 310.68C296.817 298.213 302.39 287.507 313.537 278.56C324.683 269.467 336.343 264.92 348.517 264.92C356.73 264.92 362.23 266.68 365.017 270.2C366.19 271.96 366.777 273.867 366.777 275.92C366.777 277.827 366.117 279.953 364.797 282.3C362.157 286.847 357.17 290.88 349.837 294.4C342.65 297.773 335.83 299.46 329.377 299.46C326.883 299.46 325.49 299.24 325.197 298.8C325.05 298.36 325.27 298.067 325.857 297.92C326.443 297.627 327.25 297.48 328.277 297.48C334.143 297.48 341.037 295.427 348.957 291.32Z" fill="black"/>
<path d="M661.444 181.32C662.911 181.32 663.644 181.687 663.644 182.42C663.644 183.447 662.838 185.06 661.224 187.26C645.678 207.647 628.884 232.433 610.844 261.62C592.951 290.807 580.558 313.54 573.664 329.82C572.491 332.313 571.538 332.9 570.804 331.58C570.658 331.14 570.584 330.333 570.584 329.16C570.584 323.147 578.504 306.72 594.344 279.88C610.331 253.04 624.778 229.94 637.684 210.58C650.738 191.22 658.071 181.54 659.684 181.54L661.444 181.32ZM573.444 201.78C574.764 201.78 575.424 202.147 575.424 202.88C575.424 203.907 574.618 205.52 573.004 207.72C561.124 223.56 548.438 241.82 534.944 262.5C541.838 262.94 548.658 263.82 555.404 265.14C577.404 269.687 588.404 276.727 588.404 286.26C588.404 286.847 588.258 287.14 587.964 287.14C587.671 287.14 587.378 286.773 587.084 286.04C585.618 282.373 577.551 279.88 562.884 278.56C558.484 278.12 553.131 277.9 546.824 277.9C540.518 277.9 532.964 278.34 524.164 279.22C502.458 313.687 488.011 339.427 480.824 356.44C480.091 358.053 479.358 358.86 478.624 358.86C478.038 358.86 477.744 358.127 477.744 356.66C477.744 349.327 491.164 323.66 518.004 279.66C509.498 280.833 503.264 281.787 499.304 282.52C473.491 287.067 456.478 294.107 448.264 303.64C445.771 306.72 444.524 309.58 444.524 312.22C444.524 314.86 445.991 317.353 448.924 319.7C449.804 320.287 449.658 320.58 448.484 320.58L446.504 319.92C440.198 315.08 437.044 309.433 437.044 302.98C437.044 296.673 440.051 290.513 446.064 284.5C454.864 275.7 469.898 269.393 491.164 265.58C503.924 263.38 515.878 262.28 527.024 262.28C527.611 262.28 528.271 262.28 529.004 262.28C554.818 222.093 568.971 202 571.464 202L573.444 201.78Z" fill="black"/>
<path d="M661.339 291.32C669.113 287.067 672.999 282.74 672.999 278.34C672.999 273.94 670.359 271.74 665.079 271.74C662.586 271.74 659.946 272.4 657.159 273.72C650.999 276.507 645.059 281.347 639.339 288.24C632.299 296.747 628.779 304.667 628.779 312C628.779 314.787 629.513 317.427 630.979 319.92C632.593 322.267 635.379 323.44 639.339 323.44C646.233 323.44 654.959 319.847 665.519 312.66C676.079 305.327 685.173 297.993 692.799 290.66C694.559 288.9 695.439 288.827 695.439 290.44C695.439 291.467 694.999 292.347 694.119 293.08C688.693 298.067 685.026 301.44 683.119 303.2C681.359 304.813 677.766 307.82 672.339 312.22C666.913 316.473 662.513 319.48 659.139 321.24C648.726 326.667 639.853 329.38 632.519 329.38C625.333 329.38 619.613 327.767 615.359 324.54C611.253 321.167 609.199 316.547 609.199 310.68C609.199 298.213 614.773 287.507 625.919 278.56C637.066 269.467 648.726 264.92 660.899 264.92C669.113 264.92 674.613 266.68 677.399 270.2C678.573 271.96 679.159 273.867 679.159 275.92C679.159 277.827 678.499 279.953 677.179 282.3C674.539 286.847 669.553 290.88 662.219 294.4C655.033 297.773 648.213 299.46 641.759 299.46C639.266 299.46 637.873 299.24 637.579 298.8C637.433 298.36 637.653 298.067 638.239 297.92C638.826 297.627 639.633 297.48 640.659 297.48C646.526 297.48 653.419 295.427 661.339 291.32Z" fill="black"/>
<path d="M745.775 281.64C739.321 289.12 734.041 296.013 729.935 302.32C725.975 308.48 723.995 312.88 723.995 315.52C723.995 318.013 725.461 319.26 728.395 319.26C731.475 319.26 737.635 316.253 746.875 310.24C756.261 304.227 764.915 297.48 772.835 290C773.568 289.267 774.228 288.973 774.815 289.12C775.401 289.267 775.695 289.633 775.695 290.22C775.695 290.807 775.401 291.467 774.815 292.2C755.895 309.507 741.448 320.36 731.475 324.76C727.075 326.52 723.921 327.4 722.015 327.4C714.975 327.4 710.135 326.227 707.495 323.88C705.001 321.533 703.755 318.967 703.755 316.18C703.755 310.607 704.855 306.353 707.055 303.42C714.241 293.3 719.961 284.72 724.215 277.68C725.535 275.627 725.241 274.233 723.335 273.5C721.575 272.62 719.301 272.18 716.515 272.18C713.875 272.18 712.481 272.107 712.335 271.96C702.508 285.16 692.755 295.573 683.075 303.2C681.901 304.227 681.241 304.227 681.095 303.2C681.095 302.027 681.901 300.633 683.515 299.02C693.781 290.22 702.215 280.907 708.815 271.08C707.495 270.2 706.835 269.027 706.835 267.56C706.835 265.947 706.908 264.04 707.055 261.84C707.348 259.64 708.521 256.707 710.575 253.04C714.095 246.88 717.761 243.8 721.575 243.8C724.801 243.8 726.415 245.56 726.415 249.08C726.415 253.92 724.141 259.2 719.595 264.92C717.395 267.56 715.341 269.467 713.435 270.64C718.861 268.88 726.781 268 737.195 268C742.328 268 745.995 269.907 748.195 273.72C748.488 274.307 748.635 275.187 748.635 276.36C748.635 277.533 747.681 279.293 745.775 281.64Z" fill="black"/>
<path d="M1000.08 211.46C1000.08 204.567 993.993 201.12 981.819 201.12C966.713 201.12 946.106 206.547 919.999 217.4C894.039 228.253 873.799 240.427 859.279 253.92C850.333 262.28 843.439 270.42 838.599 278.34C833.759 286.113 831.339 292.933 831.339 298.8C831.339 304.52 832.953 309.727 836.179 314.42C841.753 322.927 854.293 327.987 873.799 329.6C875.999 329.747 879.446 329.82 884.139 329.82C888.833 329.82 895.359 329.013 903.719 327.4C923.519 323.88 943.099 317.28 962.459 307.6C981.819 297.773 996.999 286.48 1008 273.72C1008.88 270.787 1009.54 268 1009.98 265.36C1010.57 262.573 1009.54 261.327 1006.9 261.62C1004.7 261.913 1002.35 263.087 999.859 265.14C997.366 267.193 995.899 267.56 995.459 266.24C995.019 264.773 995.753 263.307 997.659 261.84C1002.65 258.32 1007.19 256.56 1011.3 256.56C1015.55 256.56 1018.63 257.733 1020.54 260.08C1022.45 262.28 1023.4 265.067 1023.4 268.44C1023.4 275.92 1019.15 287.067 1010.64 301.88C998.173 323.147 987.246 338.693 977.859 348.52C968.619 358.493 958.573 366.267 947.719 371.84C936.866 377.413 925.719 380.2 914.279 380.2C902.986 380.2 893.453 377.633 885.679 372.5C878.053 367.367 873.433 359.3 871.819 348.3C871.673 347.127 871.893 346.54 872.479 346.54C873.213 346.687 873.726 347.2 874.019 348.08C875.486 356.44 879.446 363.26 885.899 368.54C892.499 373.82 899.979 376.46 908.339 376.46C922.859 376.46 938.919 367.367 956.519 349.18C978.373 326.447 994.139 304.667 1003.82 283.84C993.113 294.693 978.666 305.18 960.479 315.3C931.586 331.287 904.233 339.28 878.419 339.28C860.379 339.28 845.933 333.927 835.079 323.22C828.186 316.327 824.739 307.013 824.739 295.28C824.739 285.307 827.306 275.627 832.439 266.24C844.906 242.773 866.466 222.093 897.119 204.2C915.306 193.493 931.733 186.38 946.399 182.86C955.639 180.953 964.439 180 972.799 180C981.306 180 988.566 181.98 994.579 185.94C1001.03 190.193 1004.26 196.207 1004.26 203.98C1004.26 208.967 1002.79 214.467 999.859 220.48C998.979 222.24 998.393 222.68 998.099 221.8C997.806 220.773 998.026 219.38 998.759 217.62C999.639 215.713 1000.08 213.66 1000.08 211.46Z" fill="black"/>
<path d="M1084.58 281.64C1078.13 289.12 1072.85 296.013 1068.74 302.32C1064.78 308.48 1062.8 312.88 1062.8 315.52C1062.8 318.013 1064.27 319.26 1067.2 319.26C1070.28 319.26 1076.44 316.253 1085.68 310.24C1095.07 304.227 1103.72 297.48 1111.64 290C1112.38 289.267 1113.04 288.973 1113.62 289.12C1114.21 289.267 1114.5 289.633 1114.5 290.22C1114.5 290.807 1114.21 291.467 1113.62 292.2C1094.7 309.507 1080.26 320.36 1070.28 324.76C1065.88 326.52 1062.73 327.4 1060.82 327.4C1053.78 327.4 1048.94 326.227 1046.3 323.88C1043.81 321.533 1042.56 318.967 1042.56 316.18C1042.56 310.607 1043.66 306.353 1045.86 303.42C1053.05 293.3 1058.77 284.72 1063.02 277.68C1064.34 275.627 1064.05 274.233 1062.14 273.5C1060.38 272.62 1058.11 272.18 1055.32 272.18C1052.68 272.18 1051.29 272.107 1051.14 271.96C1041.32 285.16 1031.56 295.573 1021.88 303.2C1020.71 304.227 1020.05 304.227 1019.9 303.2C1019.9 302.027 1020.71 300.633 1022.32 299.02C1032.59 290.22 1041.02 280.907 1047.62 271.08C1046.3 270.2 1045.64 269.027 1045.64 267.56C1045.64 265.947 1045.72 264.04 1045.86 261.84C1046.16 259.64 1047.33 256.707 1049.38 253.04C1052.9 246.88 1056.57 243.8 1060.38 243.8C1063.61 243.8 1065.22 245.56 1065.22 249.08C1065.22 253.92 1062.95 259.2 1058.4 264.92C1056.2 267.56 1054.15 269.467 1052.24 270.64C1057.67 268.88 1065.59 268 1076 268C1081.14 268 1084.8 269.907 1087 273.72C1087.3 274.307 1087.44 275.187 1087.44 276.36C1087.44 277.533 1086.49 279.293 1084.58 281.64Z" fill="black"/>
<path d="M1142.3 321.9C1132.47 326.887 1123.89 329.38 1116.56 329.38C1110.4 329.38 1106.22 327.327 1104.02 323.22C1102.84 321.167 1102.26 318.82 1102.26 316.18C1102.26 310.167 1103.65 304.3 1106.44 298.58C1104.53 300.487 1102.7 302.027 1100.94 303.2C1099.47 304.52 1098.74 304.373 1098.74 302.76C1098.74 301.733 1100.06 300.12 1102.7 297.92C1105.19 295.72 1109.08 292.053 1114.36 286.92C1119.64 281.64 1123.82 277.68 1126.9 275.04C1135.84 267.56 1145.3 263.82 1155.28 263.82C1158.94 263.82 1162.68 264.773 1166.5 266.68C1172.07 269.32 1174.86 274.16 1174.86 281.2C1174.86 289.707 1170.6 298.433 1162.1 307.38C1158.72 311.193 1154.03 315.007 1148.02 318.82C1160.04 316.913 1172.8 309.653 1186.3 297.04C1187.03 296.453 1187.69 296.233 1188.28 296.38C1188.86 296.38 1189.16 296.673 1189.16 297.26C1189.16 297.847 1188.86 298.433 1188.28 299.02C1172.14 314.273 1157.11 321.9 1143.18 321.9C1142.88 321.9 1142.59 321.9 1142.3 321.9ZM1163.64 298.8C1167.3 293.227 1169.14 288.533 1169.14 284.72C1169.14 280.76 1167.45 277.753 1164.08 275.7C1162.17 274.087 1159.97 273.28 1157.48 273.28C1148.53 273.28 1140.24 276.8 1132.62 283.84C1125.14 290.88 1120.15 298.36 1117.66 306.28C1116.63 309.067 1116.12 312 1116.12 315.08C1116.12 318.013 1117.22 320.14 1119.42 321.46C1121.76 322.633 1124.33 323.22 1127.12 323.22C1129.9 323.22 1133.94 321.827 1139.22 319.04C1138.92 319.04 1138.48 318.893 1137.9 318.6C1136.14 317.72 1135.26 316.547 1135.26 315.08C1135.26 309.947 1138.12 304.74 1143.84 299.46C1147.94 295.793 1152.12 293.96 1156.38 293.96C1160.63 293.96 1163.05 295.573 1163.64 298.8Z" fill="black"/>
<path d="M1234.71 291.76C1233.24 293.96 1231.26 296.747 1228.77 300.12C1226.27 303.493 1223.93 306.72 1221.73 309.8C1219.53 312.88 1218.43 315.227 1218.43 316.84C1218.43 318.307 1219.16 319.04 1220.63 319.04C1223.27 319.04 1227.15 316.693 1232.29 312L1239.33 305.18C1246.51 297.407 1252.82 289.927 1258.25 282.74L1266.39 272.84C1268.88 270.053 1271.52 268.587 1274.31 268.44C1278.56 268.44 1282.52 270.053 1286.19 273.28C1285.31 274.6 1283.84 276.507 1281.79 279C1279.88 281.493 1277.9 284.06 1275.85 286.7C1273.94 289.193 1271.67 292.127 1269.03 295.5C1266.53 298.873 1264.33 302.027 1262.43 304.96C1260.52 307.893 1258.54 311.047 1256.49 314.42C1254.58 317.647 1253.19 320.433 1252.31 322.78C1250.11 329.233 1250.18 333.267 1252.53 334.88C1253.26 335.613 1253.11 335.98 1252.09 335.98C1251.79 335.98 1251.5 335.907 1251.21 335.76C1245.63 333.853 1242.85 329.307 1242.85 322.12C1242.85 314.933 1245.19 306.427 1249.89 296.6C1234.19 316.84 1221.43 326.96 1211.61 326.96C1204.13 326.96 1200.39 323.44 1200.39 316.4C1200.39 313.907 1200.9 310.973 1201.93 307.6C1204.13 301 1211.61 290.587 1224.37 276.36C1225.98 274.453 1226.79 272.84 1226.79 271.52C1226.79 270.2 1225.91 269.54 1224.15 269.54C1222.39 269.54 1219.75 270.86 1216.23 273.5C1212.71 276.14 1207.79 280.467 1201.49 286.48C1195.18 292.347 1191.29 295.867 1189.83 297.04C1188.51 298.213 1187.85 297.92 1187.85 296.16C1187.85 295.28 1189.24 293.74 1192.03 291.54C1194.81 289.193 1198.63 285.527 1203.47 280.54C1208.31 275.407 1212.49 271.52 1216.01 268.88C1219.67 266.093 1223.85 264.7 1228.55 264.7C1233.83 264.7 1237.42 266.68 1239.33 270.64C1240.06 272.107 1240.43 274.013 1240.43 276.36C1240.43 278.707 1239.84 281.347 1238.67 284.28C1237.49 287.067 1236.17 289.56 1234.71 291.76Z" fill="black"/>
<path d="M1370.01 274.82C1370.01 285.087 1365.02 295.94 1355.05 307.38C1347.57 316.18 1339.5 322.56 1330.85 326.52C1326.01 328.867 1321.97 330.04 1318.75 330.04C1315.52 330.04 1312.88 329.307 1310.83 327.84C1307.31 325.493 1305.55 322.047 1305.55 317.5C1305.55 312.953 1306.79 307.747 1309.29 301.88C1276.87 348.227 1260.67 375.947 1260.67 385.04C1260.67 385.92 1260.89 386.653 1261.33 387.24C1261.62 387.973 1261.47 388.413 1260.89 388.56L1260.23 388.34C1255.53 384.233 1253.19 379.393 1253.19 373.82C1253.19 361.06 1266.24 335.027 1292.35 295.72C1285.31 302.76 1281.79 305.253 1281.79 303.2C1281.79 302.027 1282.59 300.707 1284.21 299.24C1291.39 293.08 1299.17 284.647 1307.53 273.94C1315.89 263.233 1321.24 256.707 1323.59 254.36C1326.08 251.867 1329.09 250.62 1332.61 250.62C1336.13 250.62 1339.65 252.453 1343.17 256.12C1340.23 259.64 1334.73 266.9 1326.67 277.9C1333.71 271.3 1340.82 266.68 1348.01 264.04C1351.53 262.72 1354.68 262.06 1357.47 262.06C1360.25 262.06 1363.04 263.013 1365.83 264.92C1368.61 266.68 1370.01 269.98 1370.01 274.82ZM1308.85 315.74C1308.85 322.34 1311.41 325.64 1316.55 325.64C1319.48 325.64 1323.88 324.173 1329.75 321.24C1335.76 318.307 1341.55 313.54 1347.13 306.94C1352.85 300.193 1356.88 294.18 1359.23 288.9C1361.57 283.473 1362.75 279.073 1362.75 275.7C1362.75 269.687 1360.4 266.68 1355.71 266.68C1352.63 266.68 1347.86 268.22 1341.41 271.3C1334.95 274.38 1328.94 279.22 1323.37 285.82C1313.69 296.967 1308.85 306.94 1308.85 315.74Z" fill="black"/>
</svg>
